# Blender v2.74 (sub 0) OBJ File: 'Rock_2.blend'
# www.blender.org
mtllib Rock_1_Low_PS.mtl
o Cube_Cube.001
v -2.701068 -0.004569 1.110908
v -1.013241 1.461472 0.140646
v -2.348092 0.216743 -2.801191
v -0.148981 2.264268 -0.940415
v 1.562334 -0.045663 -0.588522
v 0.649083 1.368513 -0.234545
v 2.081074 -0.090907 -2.857311
v 0.635504 1.855345 -1.077627
v -0.381515 2.204891 -0.498560
v -3.674992 -0.086105 0.617326
v 0.725313 1.728444 -0.830210
v 2.093150 0.016766 -1.640477
v -1.461568 0.890066 0.631714
v -1.219450 1.356740 -1.841027
v 1.498334 0.984889 -1.933324
v 1.196115 0.680115 -0.438531
v 1.526874 0.998477 -1.192755
v -2.140870 1.077863 0.235933
v 0.437766 0.788933 -0.006221
v 0.203526 -0.010589 0.108492
v 0.260250 2.112780 -0.969794
v -0.137868 0.083237 -2.937609
v -0.108801 1.308724 -0.255640
v 0.191479 2.024750 -0.633188
v 0.130621 1.153624 -2.043751
v -0.526688 0.831492 0.452299
v -0.914176 -0.012934 0.716432
v -1.781615 0.784479 -2.298908
v 1.805180 0.469014 -2.405012
v 1.368352 0.323836 -0.426230
v 1.972207 0.568004 -1.385786
v -2.873793 0.555319 0.475313
v -2.077497 0.419262 0.855427
v 0.397145 0.388105 0.068625
v -0.726043 0.414279 0.651386
v -0.070655 0.615242 -2.435744
v -0.279482 2.249453 -0.716863
v 2.139198 -0.016280 -2.295830
v -3.295834 0.173204 -1.194206
v 0.724213 1.778047 -0.966549
v 1.543272 1.029215 -1.560793
v -1.592597 1.351453 -0.821123
v 0.229517 2.094210 -0.778461
v 1.900329 0.527385 -1.928004
v -2.542801 0.697507 -1.025469
v -0.949656 1.798504 -0.791296
v -0.668054 1.831876 -1.393336
v -1.238612 1.607103 -0.173217
v 0.213017 1.741849 -1.537774
v 1.085437 1.512871 -1.469954
v 1.140246 1.384013 -0.932264
v 1.190511 1.494229 -1.194721
v -0.461107 1.877689 -0.153142
v -0.441744 1.218313 -0.333632
v -0.710727 1.579586 -0.271961
v -0.814647 1.938532 -0.336355
v -0.659719 1.258798 0.078815
v -0.750880 1.157976 0.379801
v 0.427840 1.973374 -1.148647
v -0.073163 0.805980 0.124694
v -0.354108 -0.012946 0.392692
v 0.999170 -0.008493 -2.941828
v 0.289497 1.255722 -0.030178
v 0.436330 1.836956 -0.719645
v 0.755533 1.105103 -2.025250
v -0.166386 0.405032 0.323164
v 0.870662 0.580956 -2.438956
v 0.435685 1.923323 -0.905236
v 0.517337 1.566350 -1.574297
v -1.262536 1.257765 0.355191
v -1.512081 1.465173 0.155675
v -1.495187 1.429279 -0.335528
v -1.778344 0.633610 0.802761
v -1.506963 1.031269 -2.068897
v 1.659294 0.768371 -2.187208
v 1.289913 0.484077 -0.426144
v 1.741195 0.770007 -1.272353
v -2.549234 0.829632 0.395454
v 0.429137 0.572328 0.009030
v -0.650595 0.596607 0.594347
v 0.012121 0.869141 -2.248797
v -2.072336 1.056009 -0.935940
v 1.731910 0.789984 -1.739144
v 0.787553 0.841256 -2.219109
v -0.130224 0.587168 0.302043
v -2.065310 0.506503 -2.561978
v 1.950033 0.186160 -2.661056
v 1.476667 0.126540 -0.500023
v 2.071736 0.273710 -1.552572
v -3.456463 0.209164 0.570991
v 0.300336 0.188758 0.088559
v -0.820110 0.200672 0.683909
v -0.096019 0.327765 -2.686693
v -2.382098 0.201883 1.008665
v 2.040109 0.266911 -2.114903
v -2.927722 0.419904 -1.083376
v -0.260247 0.196043 0.357928
v 0.920035 0.276789 -2.652033
v 0.944715 1.335288 -0.615318
v 1.742291 0.522075 -0.848782
v 1.625893 0.690981 -0.772470
v 1.860328 -0.045163 -1.126018
v 1.880948 0.305862 -0.945881
v 1.479936 0.883580 -0.748900
v 1.639447 -0.061849 -2.934444
v 1.294804 1.035848 -2.059608
v 1.536676 0.205066 -2.689805
v 1.436099 0.473543 -2.462418
v 1.365245 0.790974 -2.208662
v -0.173807 1.878218 -0.339178
v 1.430692 1.196581 -1.449636
v 1.391699 1.262814 -1.666075
v -2.419443 0.433181 0.538524
v -2.609013 0.244411 0.571959
v -1.885858 1.022570 0.472819
v -2.059051 0.745288 0.642390
v -2.811728 0.122316 0.712536
v -3.829072 -0.049148 0.337344
v -3.297064 0.007037 0.717179
v -2.598105 0.072299 1.071212
v -2.497982 -0.058739 1.079785
v -2.778666 0.024522 0.980597
v 2.121039 -0.082225 -2.662114
v 2.036757 0.014156 -2.800852
v 1.925820 -0.102245 -2.923422
vt 0.896835 0.659164
vt 0.857391 0.421189
vt 0.920955 0.402034
vt 0.961649 0.663437
vt 0.441501 0.028737
vt 0.415435 0.041552
vt 0.419502 0.013539
vt 0.663726 0.913126
vt 0.629003 0.836097
vt 0.658406 0.831807
vt 0.716118 0.897993
vt 0.208631 0.400786
vt 0.186603 0.399673
vt 0.177956 0.372811
vt 0.266263 0.852183
vt 0.346481 0.818844
vt 0.295394 0.879808
vt 0.419899 0.510147
vt 0.432934 0.489981
vt 0.469520 0.522084
vt 0.468337 0.552787
vt 0.341847 0.116890
vt 0.270358 0.155728
vt 0.264036 0.116653
vt 0.345084 0.066420
vt 0.035934 0.371831
vt 0.003596 0.290294
vt 0.076658 0.355626
vt 0.255621 0.802682
vt 0.247091 0.908960
vt 0.216380 0.841432
vt 0.352716 0.361543
vt 0.318835 0.382667
vt 0.299109 0.298317
vt 0.347181 0.300233
vt 0.310182 0.788165
vt 0.344291 0.687385
vt 0.433019 0.869508
vt 0.549031 0.862911
vt 0.565977 0.923176
vt 0.469229 0.919648
vt 0.428355 0.455995
vt 0.400453 0.438806
vt 0.388981 0.347003
vt 0.455962 0.383541
vt 0.563231 0.502605
vt 0.564933 0.589955
vt 0.497735 0.713537
vt 0.508316 0.684187
vt 0.456213 0.789817
vt 0.481415 0.421682
vt 0.404887 0.824984
vt 0.396707 0.744687
vt 0.402385 0.475919
vt 0.368835 0.939096
vt 0.327496 0.936606
vt 0.434864 0.652269
vt 0.369588 0.589269
vt 0.380261 0.557319
vt 0.445759 0.621455
vt 0.650175 0.239026
vt 0.682761 0.201305
vt 0.735916 0.457845
vt 0.584425 0.311098
vt 0.617618 0.281366
vt 0.794212 0.441731
vt 0.409317 0.705725
vt 0.351064 0.646996
vt 0.359577 0.619889
vt 0.423680 0.683219
vt 0.575472 0.850766
vt 0.474530 0.766823
vt 0.487345 0.742854
vt 0.597576 0.841724
vt 0.177259 0.543726
vt 0.097000 0.527323
vt 0.075902 0.467229
vt 0.142081 0.483045
vt 0.339815 0.218716
vt 0.282180 0.253952
vt 0.271217 0.207246
vt 0.339319 0.166676
vt 0.226532 0.546995
vt 0.210176 0.493257
vt 0.597556 0.916753
vt 0.626897 0.915783
vt 0.428832 0.209276
vt 0.394624 0.187932
vt 0.400528 0.133031
vt 0.449003 0.155157
vt 0.746853 0.633511
vt 0.830015 0.646708
vt 0.756917 0.836678
vt 0.811336 0.865988
vt 0.378787 0.492113
vt 0.407008 0.527592
vt 0.465167 0.583807
vt 0.514391 0.636946
vt 0.375806 0.290805
vt 0.389009 0.035208
vt 0.973081 0.950125
vt 0.899089 0.909109
vt 0.970970 0.897353
vt 0.603126 0.747678
vt 0.627241 0.681608
vt 0.666945 0.623170
vt 0.699350 0.793301
vt 0.171498 0.597470
vt 0.172794 0.694543
vt 0.119921 0.597782
vt 0.671236 0.476579
vt 0.387181 0.238386
vt 0.419343 0.248324
vt 0.544756 0.341941
vt 0.411550 0.960439
vt 0.490742 0.968024
vt 0.378153 0.437539
vt 0.360785 0.448308
vt 0.287369 0.743477
vt 0.289670 0.701292
vt 0.235290 0.729430
vt 0.577429 0.688323
vt 0.185887 0.761686
vt 0.237877 0.608029
vt 0.225404 0.676907
vt 0.475563 0.293920
vt 0.495254 0.253485
vt 0.510066 0.207682
vt 0.531248 0.159755
vt 0.552467 0.104817
vt 0.343059 0.268460
vt 0.410515 0.075446
vt 0.131582 0.447684
vt 0.198022 0.435154
vt 0.462041 0.104859
vt 0.622620 0.983435
vt 0.669352 0.984933
vt 0.576083 0.986220
vt 0.720708 0.981021
vt 0.758310 0.968819
vt 0.476000 0.052569
vt 0.160616 0.385360
vt 0.126926 0.409742
vn -0.538000 0.827300 -0.161600
vn -0.277800 0.792300 -0.543200
vn -0.326200 0.805500 -0.494700
vn -0.534800 0.829900 -0.158800
vn 0.152000 0.646200 -0.747900
vn 0.563700 0.637600 -0.525000
vn 0.594500 0.560500 -0.576400
vn 0.874900 0.041100 0.482500
vn 0.614100 -0.076200 0.785500
vn 0.719400 -0.184100 0.669700
vn 0.888900 -0.163800 0.427800
vn 0.192500 0.170000 0.966400
vn -0.134700 0.634000 0.761500
vn -0.229200 0.671100 0.705000
vn 0.031000 0.311000 0.949900
vn 0.062800 0.479900 0.875000
vn 0.494300 0.377100 0.783200
vn 0.517500 0.802300 0.297300
vn 0.433600 0.885000 -0.169500
vn -0.016100 0.971500 -0.236400
vn -0.125600 0.987900 0.091000
vn 0.893600 0.432100 -0.121700
vn 0.972000 0.192200 0.135100
vn 0.986600 0.068000 0.148400
vn 0.905100 0.406100 -0.125900
vn -0.454100 0.742900 0.491700
vn -0.588900 0.531400 0.609000
vn -0.165300 0.572800 0.802800
vn 0.159800 0.430400 0.888400
vn -0.119400 0.893500 0.432900
vn -0.435100 0.800500 0.412100
vn 0.687800 0.714800 0.126300
vn 0.698100 0.621800 0.355000
vn 0.777100 0.592400 0.212500
vn 0.801900 0.596000 0.042100
vn 0.107700 0.507200 0.855000
vn 0.386100 0.483400 0.785600
vn 0.465200 0.509200 0.724100
vn 0.561800 0.281500 0.777900
vn 0.694900 0.508600 0.508300
vn 0.659400 0.547200 0.515500
vn 0.405000 0.850700 -0.335000
vn 0.442100 0.887200 -0.131700
vn 0.434800 0.826200 -0.358300
vn 0.199000 0.745100 -0.636600
vn -0.285200 0.822600 -0.492000
vn -0.559300 0.818500 -0.130600
vn 0.434800 -0.114900 0.893200
vn 0.441400 -0.119100 0.889300
vn 0.413400 0.200000 0.888300
vn 0.110600 0.732500 -0.671700
vn 0.243600 0.455100 0.856500
vn 0.312600 0.418200 0.852800
vn 0.588800 0.765300 0.259900
vn 0.382500 0.736100 0.558400
vn 0.404100 0.683200 0.608200
vn 0.467800 -0.084100 0.879800
vn 0.352600 0.060100 0.933800
vn 0.319700 0.046200 0.946300
vn 0.479100 -0.085600 0.873500
vn 0.028500 0.671300 -0.740600
vn 0.030000 0.694800 -0.718600
vn -0.298500 0.771300 -0.562100
vn 0.010900 0.610800 -0.791700
vn 0.017800 0.639000 -0.769000
vn -0.289500 0.786900 -0.544900
vn 0.466200 0.214300 0.858300
vn 0.344300 0.225900 0.911300
vn 0.341100 0.062700 0.937900
vn 0.462800 -0.004900 0.886400
vn 0.544100 0.233700 0.805800
vn 0.434900 0.209500 0.875700
vn 0.444000 0.031300 0.895500
vn 0.567700 0.085500 0.818800
vn -0.305500 0.568500 0.763800
vn -0.507600 0.720500 0.472400
vn -0.420000 0.686200 0.593800
vn -0.338700 0.497600 0.798500
vn 0.743500 0.661100 -0.100700
vn 0.770800 0.618300 0.153300
vn 0.861900 0.488800 0.134600
vn 0.817200 0.557000 -0.148000
vn -0.039400 0.391700 0.919200
vn -0.176700 0.469600 0.865000
vn 0.718900 0.432000 0.544600
vn 0.781100 0.321700 0.535200
vn 0.144900 0.649200 -0.746700
vn 0.513900 0.696900 -0.500200
vn 0.499600 0.689500 -0.524300
vn 0.085700 0.640300 -0.763300
vn -0.554600 0.816200 -0.161700
vn -0.562900 0.809000 -0.169300
vn 0.637700 0.710100 -0.298600
vn 0.853100 0.492700 -0.171300
vn -0.610800 0.784800 0.105200
vn -0.285500 0.874900 0.391100
vn -0.538400 0.841400 -0.045200
vn -0.544200 0.829300 -0.126600
vn -0.454900 0.844900 0.281300
vn -0.226900 0.681300 0.695900
vn -0.313400 0.777400 -0.545300
vn 0.563800 0.727500 -0.390800
vn 0.206100 0.699500 -0.684300
vn 0.040200 0.632000 -0.773900
vn 0.518200 0.734300 0.438500
vn 0.542600 0.815900 0.199600
vn 0.663400 0.623200 0.414100
vn 0.422100 0.589100 0.689000
vn 0.240400 0.737200 0.631400
vn -0.316700 0.901000 0.296500
vn 0.046200 0.529000 0.847300
vn 0.012300 0.675800 0.736900
vn 0.095000 0.660500 -0.744700
vn 0.052000 0.601200 -0.797400
vn 0.054000 0.626800 -0.777300
vn 0.051200 0.663600 -0.746300
vn 0.054700 0.708300 -0.703700
vn 0.808800 0.587200 -0.031000
vn 0.523700 0.677000 -0.517100
vn -0.247800 0.645400 0.722500
vn -0.138000 0.565800 0.812900
vn 0.076400 0.676400 -0.732500
vn 0.080800 0.688500 -0.720600
vn -0.368100 0.858800 0.356300
vn -0.205900 0.792500 0.574000
usemtl Material.001
s 1
f 96/1/1 86/2/2 3/3/3 39/4/4
f 125/5/5 124/6/6 7/7/7
f 103/8/8 88/9/9 5/10/10 102/11/11
f 121/12/12 120/13/13 1/14/14
f 53/15/15 23/16/16 110/17/17
f 43/18/18 21/19/19 4/20/20 37/21/21
f 95/22/22 89/23/23 12/24/24 38/25/25
f 90/26/26 10/27/27 119/28/28
f 55/29/29 53/15/15 9/30/30 56/31/31
f 52/32/32 51/33/33 17/34/34 111/35/35
f 23/16/16 54/36/36 26/37/37
f 6/38/38 16/39/39 104/40/40 99/41/41
f 59/42/42 8/43/43 50/44/44 69/45/45
f 37/21/21 4/20/20 47/46/46 46/47/47
f 88/9/9 91/48/48 20/49/49 5/10/10
f 16/39/39 6/38/38 19/50/50
f 4/20/20 21/19/19 49/51/51 47/46/46
f 63/52/52 23/16/16 26/37/37 60/53/53
f 68/54/54 59/42/42 21/19/19 43/18/18
f 63/52/52 64/55/55 24/56/56 23/16/16
f 97/57/57 92/58/58 27/59/59 61/60/60
f 86/2/2 93/61/61 22/62/62 3/3/3
f 74/63/63 81/64/64 36/65/65 28/66/66
f 85/67/67 80/68/68 35/69/69 66/70/70
f 76/71/71 79/72/72 34/73/73 30/74/74
f 116/75/75 78/76/76 32/77/77 113/78/78
f 83/79/79 77/80/80 31/81/81 44/82/82
f 80/68/68 73/83/83 33/84/84 35/69/69
f 101/85/85 76/71/71 30/74/74 100/86/86
f 109/87/87 75/88/88 29/89/89 108/90/90
f 82/91/91 74/63/63 28/66/66 45/92/92
f 78/93/76 82/91/91 45/92/92 32/94/77
f 75/88/88 83/79/79 44/82/82 29/89/89
f 64/95/55 68/54/54 43/18/18 24/96/56
f 9/97/30 37/21/21 46/47/47 56/98/31
f 50/44/44 52/32/32 111/35/35 112/99/93
f 124/6/6 123/100/94 7/7/7
f 24/96/56 43/18/18 37/21/21 9/97/30
f 10/101/27 90/102/26 118/103/95
f 71/104/96 72/105/97 42/106/98 18/107/99
f 115/108/100 71/109/96 18/110/99
f 46/47/47 47/46/46 14/111/101 42/106/98
f 50/44/44 112/99/93 15/112/102 106/113/103
f 47/46/46 49/51/51 25/114/104 14/111/101
f 11/115/105 6/38/38 99/41/41 51/116/33
f 8/43/43 40/117/106 52/32/32 50/44/44
f 40/117/106 11/118/105 51/33/33 52/32/32
f 54/36/36 23/16/16 53/15/15 55/29/29
f 54/36/36 57/119/107 58/120/108 26/37/37
f 2/121/109 57/119/107 54/36/36 55/29/29
f 56/98/31 46/47/47 48/122/110
f 2/121/109 55/29/29 56/31/31 48/123/110
f 13/124/111 26/37/37 58/120/108
f 57/119/107 2/121/109 58/120/108
f 2/121/109 70/125/112 13/124/111 58/120/108
f 49/51/51 69/45/45 65/126/113 25/114/104
f 11/118/105 40/117/106 68/54/54 64/95/55
f 81/64/64 84/127/114 67/128/115 36/65/65
f 79/72/72 85/67/67 66/70/70 34/73/73
f 91/48/48 97/57/57 61/60/60 20/49/49
f 6/38/38 11/115/105 64/55/55 63/52/52
f 40/117/106 8/43/43 59/42/42 68/54/54
f 6/38/38 63/52/52 60/53/53 19/50/50
f 21/19/19 59/42/42 69/45/45 49/51/51
f 93/61/61 98/129/116 62/130/117 22/62/62
f 71/104/96 48/122/110 72/105/97
f 70/125/112 2/121/109 48/123/110 71/109/96
f 48/122/110 46/47/47 42/106/98 72/105/97
f 19/50/50 60/53/53 85/67/67 79/72/72
f 25/114/104 65/126/113 84/127/114 81/64/64
f 15/112/102 41/131/118 83/79/79 75/88/88
f 18/107/99 42/106/98 82/91/91 78/93/76
f 42/106/98 14/111/101 74/63/63 82/91/91
f 106/113/103 15/112/102 75/88/88 109/87/87
f 104/40/40 16/39/39 76/71/71 101/85/85
f 26/37/37 13/124/111 73/83/83 80/68/68
f 41/131/118 17/34/34 77/80/80 83/79/79
f 115/108/100 18/110/99 78/76/76 116/75/75
f 16/39/39 19/50/50 79/72/72 76/71/71
f 60/53/53 26/37/37 80/68/68 85/67/67
f 14/111/101 25/114/104 81/64/64 74/63/63
f 36/65/65 67/128/115 98/129/116 93/61/61
f 34/73/73 66/70/70 97/57/57 91/48/48
f 32/94/77 45/92/92 96/1/1 90/102/26
f 29/89/89 44/82/82 95/22/22 87/132/119
f 28/66/66 36/65/65 93/61/61 86/2/2
f 66/70/70 35/69/69 92/58/58 97/57/57
f 30/74/74 34/73/73 91/48/48 88/9/9
f 113/78/78 32/77/77 90/26/26 114/133/120
f 44/82/82 31/81/81 89/23/23 95/22/22
f 35/69/69 33/84/84 94/134/121 92/58/58
f 100/86/86 30/74/74 88/9/9 103/8/8
f 108/90/90 29/89/89 87/132/119 107/135/122
f 45/92/92 28/66/66 86/2/2 96/1/1
f 77/136/80 101/85/85 100/86/86 31/137/81
f 99/41/41 104/40/40 17/138/34 51/116/33
f 89/139/23 103/8/8 102/11/11 12/140/24
f 31/137/81 100/86/86 103/8/8 89/139/23
f 17/138/34 104/40/40 101/85/85 77/136/80
f 67/128/115 108/90/90 107/135/122 98/129/116
f 98/129/116 107/135/122 105/141/123 62/130/117
f 69/45/45 50/44/44 106/113/103 65/126/113
f 65/126/113 106/113/103 109/87/87 84/127/114
f 84/127/114 109/87/87 108/90/90 67/128/115
f 9/30/30 53/15/15 110/17/17
f 23/16/16 24/56/56 110/17/17
f 24/56/56 9/30/30 110/17/17
f 112/99/93 111/35/35 41/131/118 15/112/102
f 111/35/35 17/34/34 41/131/118
f 73/83/83 116/75/75 113/78/78 33/84/84
f 13/124/111 115/108/100 116/75/75 73/83/83
f 13/124/111 70/125/112 71/109/96 115/108/100
f 33/84/84 113/78/78 114/133/120 94/134/121
f 120/13/13 122/142/124 1/14/14
f 114/133/120 90/26/26 119/28/28 117/143/125
f 90/102/26 96/1/1 39/4/4 118/103/95
f 94/134/121 120/13/13 121/12/12
f 94/134/121 114/133/120 120/13/13
f 87/132/119 124/6/6 125/5/5
f 87/132/119 95/22/22 38/25/25 123/100/94
f 114/133/120 117/143/125 122/142/124 120/13/13
f 92/58/58 94/134/121 121/12/12 27/59/59
f 124/6/6 87/132/119 123/100/94
f 107/135/122 87/132/119 125/5/5 105/141/123
